<svg xmlns="http://www.w3.org/2000/svg" viewBox="230 245 1040 850" role="img" aria-labelledby="title desc">
  <title id="title">BubbleHub logo</title>
  <desc id="desc">Pink BubbleHub icon above the BubbleHub wordmark.</desc>
  <defs>
  <radialGradient id="bubblehubPink" cx="32%" cy="24%" r="72%">
    <stop offset="0%" stop-color="#FFD7E6"/>
    <stop offset="42%" stop-color="#FE9CBF"/>
    <stop offset="100%" stop-color="#F76AA4"/>
  </radialGradient>
  <g id="glyph-0-0">
<path d="M 61.519531 0.171875 C 62.707031 0.171875 63.898438 0 65.089844 0 C 65.769531 0 66.277344 0 66.957031 0 C 71.035156 0 77.492188 -2.039062 81.234375 -4.078125 C 84.460938 -5.777344 88.710938 -9.347656 91.089844 -16.316406 C 92.277344 -19.714844 93.636719 -26.171875 93.636719 -30.929688 C 93.636719 -34.160156 92.789062 -37.21875 92.109375 -41.125 C 91.597656 -43.84375 91.257812 -45.714844 89.730469 -48.09375 C 86.5 -53.023438 83.101562 -54.722656 82.082031 -55.230469 C 80.722656 -55.910156 79.53125 -56.589844 79.53125 -57.101562 C 79.53125 -57.441406 80.210938 -58.289062 80.554688 -58.460938 C 82.421875 -59.988281 82.761719 -59.820312 84.460938 -61.519531 C 86.332031 -63.21875 87.859375 -65.597656 88.878906 -67.46875 C 90.238281 -70.1875 91.9375 -77.492188 91.9375 -82.082031 C 91.9375 -83.953125 91.769531 -88.371094 88.539062 -95.335938 C 87.179688 -98.398438 83.953125 -104.003906 76.304688 -108.253906 C 69.335938 -112.160156 59.140625 -113.691406 52.34375 -113.691406 C 46.394531 -113.691406 45.375 -113.183594 42.144531 -113.351562 L 35.347656 -113.691406 L 29.910156 -113.523438 C 25.492188 -113.691406 23.453125 -114.03125 21.414062 -114.03125 L 15.972656 -114.03125 C 12.914062 -114.03125 11.726562 -113.523438 11.214844 -113.183594 C 9.515625 -112.160156 9.347656 -109.953125 9.347656 -107.742188 L 9.347656 -93.808594 C 9.347656 -89.558594 9.007812 -90.75 8.835938 -84.121094 C 8.835938 -82.421875 8.835938 -80.894531 8.835938 -79.191406 C 9.007812 -76.132812 9.007812 -73.246094 9.007812 -70.1875 C 9.007812 -68.828125 8.328125 -66.617188 8.667969 -62.367188 C 8.835938 -59.820312 8.835938 -54.550781 8.835938 -50.304688 C 8.835938 -47.074219 8.15625 -43.675781 8.15625 -40.445312 C 8.15625 -35.859375 8.496094 -31.097656 8.496094 -26.511719 C 8.496094 -23.792969 7.988281 -19.203125 7.988281 -15.804688 C 7.988281 -7.816406 8.667969 -4.757812 10.027344 -2.550781 C 11.894531 0.171875 14.105469 0.171875 17.164062 0.171875 L 22.601562 0.171875 C 29.058594 0.171875 35.519531 0.511719 41.976562 0.511719 C 44.355469 0.511719 46.902344 0.339844 49.285156 0.339844 Z M 53.363281 -46.734375 C 57.609375 -46.5625 62.367188 -44.695312 64.410156 -42.144531 C 65.769531 -40.445312 66.789062 -37.558594 66.789062 -34.160156 C 66.789062 -31.097656 65.769531 -28.71875 64.578125 -27.019531 C 61.6875 -23.28125 56.761719 -22.941406 50.984375 -22.941406 L 46.734375 -22.941406 C 43.503906 -22.941406 36.027344 -22.601562 34.839844 -25.660156 C 34.667969 -26.339844 34.667969 -27.191406 34.667969 -28.210938 C 34.667969 -29.398438 34.5 -30.929688 34.328125 -33.648438 L 34.160156 -36.878906 C 33.988281 -39.765625 35.179688 -44.523438 38.40625 -46.054688 C 40.105469 -46.734375 44.355469 -46.902344 45.714844 -46.902344 Z M 47.921875 -71.886719 C 42.144531 -72.226562 39.257812 -72.226562 37.898438 -73.414062 C 36.539062 -74.605469 36.367188 -76.8125 36.199219 -78.171875 C 36.027344 -80.042969 35.6875 -81.574219 35.6875 -82.933594 C 35.6875 -84.972656 36.027344 -88.539062 37.386719 -89.730469 C 39.257812 -91.597656 43.164062 -91.597656 44.183594 -91.597656 C 47.921875 -91.597656 53.023438 -91.257812 56.421875 -90.410156 C 58.289062 -89.898438 61.007812 -89.050781 62.707031 -87.011719 C 63.898438 -85.652344 64.578125 -83.441406 64.578125 -80.722656 C 64.578125 -76.984375 62.878906 -74.605469 59.988281 -73.246094 C 57.949219 -72.394531 54.382812 -71.546875 51.664062 -71.714844 Z M 47.921875 -71.886719 "/>
</g>
<g id="glyph-0-1">
<path d="M 6.289062 -94.65625 L 6.628906 -84.121094 L 6.628906 -63.386719 C 6.628906 -53.871094 6.96875 -51.152344 6.796875 -47.753906 C 6.628906 -45.375 6.457031 -43.164062 6.457031 -40.785156 C 6.457031 -39.9375 6.628906 -38.917969 6.628906 -38.066406 C 7.136719 -32.289062 7.308594 -32.460938 7.476562 -29.910156 C 7.816406 -26 9.6875 -10.875 24.132812 -3.738281 C 33.820312 1.019531 50.132812 1.359375 56.761719 1.359375 C 68.828125 1.359375 78.683594 -1.359375 84.972656 -5.097656 C 98.226562 -12.746094 99.417969 -24.8125 100.097656 -39.765625 L 100.4375 -47.582031 C 100.605469 -51.832031 100.605469 -55.742188 100.777344 -67.976562 L 100.945312 -78.683594 C 101.117188 -86.160156 100.605469 -81.0625 100.777344 -91.089844 C 100.777344 -92.449219 100.945312 -93.808594 100.945312 -95.167969 C 100.945312 -96.867188 101.117188 -98.398438 101.117188 -100.097656 L 100.945312 -106.894531 C 100.945312 -107.574219 100.777344 -110.460938 99.417969 -111.992188 C 99.078125 -112.5 97.71875 -113.691406 94.488281 -113.691406 L 81.574219 -113.691406 C 79.53125 -113.691406 76.984375 -113.523438 75.113281 -111.992188 C 73.246094 -110.292969 72.734375 -106.894531 72.734375 -104.683594 L 72.90625 -93.296875 C 72.90625 -88.371094 72.734375 -86.671875 72.90625 -83.613281 C 72.90625 -81.914062 73.246094 -80.042969 73.246094 -78.34375 C 73.246094 -77.324219 73.246094 -76.132812 73.246094 -75.113281 C 73.074219 -72.394531 72.734375 -68.148438 72.734375 -64.066406 L 72.90625 -50.984375 C 72.90625 -47.074219 72.566406 -36.707031 71.886719 -34.667969 C 71.546875 -33.648438 70.527344 -30.589844 67.128906 -27.871094 C 62.199219 -23.960938 57.269531 -23.453125 54.210938 -23.453125 C 43.335938 -23.453125 38.746094 -27.699219 37.046875 -31.777344 C 36.027344 -34.328125 34.839844 -40.617188 34.667969 -44.355469 L 34.5 -47.414062 C 34.160156 -52.003906 34.328125 -52.34375 34.328125 -54.890625 C 34.328125 -59.308594 34.160156 -63.898438 34.160156 -68.316406 C 34.160156 -72.734375 34.5 -77.324219 34.5 -81.742188 L 34.5 -88.878906 L 34.328125 -96.699219 C 34.328125 -99.246094 34.5 -102.644531 34.667969 -103.664062 C 34.839844 -105.703125 35.179688 -107.402344 35.179688 -108.933594 C 35.179688 -110.121094 34.839844 -111.480469 34.328125 -112.160156 C 33.820312 -112.84375 32.96875 -113.523438 31.4375 -113.523438 L 24.640625 -113.863281 C 22.601562 -114.03125 19.203125 -113.691406 15.972656 -113.523438 C 15.292969 -113.523438 14.785156 -113.523438 14.105469 -113.523438 C 13.59375 -113.523438 12.914062 -113.691406 12.40625 -113.691406 C 12.066406 -113.691406 11.894531 -113.691406 11.554688 -113.691406 C 9.515625 -113.523438 8.835938 -113.011719 8.15625 -112.332031 C 6.796875 -110.800781 6.457031 -109.441406 6.457031 -106.554688 L 6.289062 -99.246094 Z M 6.289062 -94.65625 "/>
</g>
<g id="glyph-0-2">
<path d="M 8.15625 -91.597656 C 8.328125 -84.972656 8.15625 -78.511719 8.15625 -71.886719 C 8.15625 -68.996094 8.328125 -65.9375 8.328125 -63.046875 L 8.496094 -56.082031 C 8.496094 -53.191406 8.15625 -50.304688 8.15625 -47.414062 C 8.15625 -46.394531 8.15625 -45.203125 8.15625 -44.183594 C 8.328125 -39.765625 8.667969 -37.386719 8.667969 -34.160156 L 8.667969 -28.378906 C 8.667969 -26.851562 8.496094 -25.492188 8.496094 -23.960938 C 8.328125 -21.414062 8.496094 -18.695312 8.496094 -16.144531 C 8.496094 -13.085938 8.15625 -10.195312 8.15625 -7.136719 C 8.15625 -5.777344 8.328125 -3.910156 10.195312 -1.871094 C 12.914062 1.019531 15.292969 0 18.695312 0 L 21.414062 0 C 24.980469 0 28.71875 0.511719 33.820312 0.339844 C 35.859375 0.171875 40.785156 -0.171875 46.394531 0 L 52.511719 0.171875 L 64.410156 0.171875 C 70.695312 0.171875 68.148438 0.511719 70.867188 0.511719 C 72.394531 0.511719 73.925781 0.171875 74.773438 -0.511719 C 76.304688 -1.53125 76.132812 -3.398438 76.132812 -4.757812 C 75.792969 -12.574219 76.132812 -11.554688 76.132812 -14.613281 L 76.132812 -20.222656 C 76.132812 -22.941406 75.625 -24.472656 75.113281 -25.152344 C 74.605469 -25.660156 73.585938 -26.511719 71.375 -26.511719 C 68.828125 -26.511719 69.675781 -26.339844 65.769531 -26.339844 L 41.636719 -26.511719 C 40.617188 -26.511719 37.898438 -26.679688 36.707031 -29.910156 C 35.6875 -32.800781 35.347656 -43.84375 35.347656 -47.242188 L 35.347656 -50.132812 C 35.347656 -52.003906 35.519531 -53.023438 35.859375 -55.742188 C 36.027344 -59.820312 36.199219 -62.027344 36.199219 -63.558594 C 36.199219 -66.789062 36.027344 -70.015625 35.859375 -73.246094 C 35.6875 -76.472656 35.519531 -79.703125 35.519531 -82.933594 C 35.519531 -86.332031 35.859375 -89.730469 35.859375 -93.128906 C 35.859375 -96.015625 35.519531 -99.078125 35.6875 -101.964844 L 36.027344 -106.042969 C 36.199219 -107.742188 36.707031 -110.292969 35.007812 -112.160156 C 33.648438 -113.691406 31.949219 -113.691406 30.589844 -113.691406 L 21.242188 -113.691406 C 17.503906 -113.691406 12.40625 -114.710938 9.855469 -112.332031 C 8.835938 -111.480469 8.15625 -109.953125 7.988281 -107.914062 C 7.988281 -107.0625 7.988281 -102.816406 7.988281 -100.945312 Z M 8.15625 -91.597656 "/>
</g>
<g id="glyph-0-3">
<path d="M 18.523438 -113.691406 C 15.632812 -113.863281 12.914062 -113.523438 11.214844 -112.332031 C 8.328125 -110.292969 8.15625 -105.703125 8.15625 -103.496094 L 8.15625 -100.4375 C 8.328125 -97.039062 8.667969 -95.167969 8.667969 -93.46875 C 8.667969 -93.128906 8.667969 -91.597656 8.667969 -91.257812 L 8.496094 -87.011719 C 8.328125 -84.292969 8.15625 -82.933594 8.15625 -81.574219 C 7.816406 -77.324219 8.328125 -77.492188 8.328125 -73.246094 L 8.328125 -69.167969 C 8.328125 -62.539062 7.988281 -61.179688 7.988281 -56.589844 C 7.988281 -53.53125 8.15625 -50.8125 8.328125 -47.074219 C 8.835938 -39.597656 7.988281 -35.519531 8.15625 -30.417969 L 8.328125 -21.414062 C 8.328125 -19.714844 8.328125 -17.84375 8.328125 -16.144531 C 8.328125 -14.953125 8.496094 -13.765625 8.496094 -12.574219 L 8.835938 -5.269531 C 8.835938 -4.25 9.515625 -3.058594 9.855469 -2.378906 C 11.726562 0.851562 16.144531 -0.171875 18.523438 -0.171875 L 21.582031 -0.171875 C 22.941406 -0.171875 24.300781 -0.171875 25.660156 -0.171875 C 27.191406 -0.171875 28.890625 0 30.417969 0 L 48.605469 0 C 52.511719 0 56.25 -0.339844 60.160156 -0.339844 C 64.410156 -0.339844 68.65625 0 72.90625 0 L 76.304688 0 C 82.59375 0 81.574219 -8.328125 81.574219 -15.464844 C 81.574219 -17.84375 81.574219 -20.902344 80.042969 -22.433594 C 79.191406 -23.28125 77.152344 -24.640625 72.226562 -24.472656 C 70.1875 -24.472656 67.976562 -24.132812 65.9375 -24.132812 C 62.027344 -24.132812 57.949219 -24.472656 54.042969 -24.300781 C 52.171875 -24.132812 48.945312 -23.960938 43.675781 -24.472656 L 40.617188 -24.8125 C 39.765625 -24.980469 38.40625 -25.152344 37.386719 -26 C 36.367188 -26.851562 36.199219 -28.039062 36.027344 -28.890625 C 35.6875 -30.589844 35.6875 -33.648438 35.6875 -34.160156 L 35.6875 -40.105469 C 35.6875 -41.296875 35.6875 -42.824219 37.558594 -45.375 C 38.578125 -46.5625 40.105469 -46.734375 40.785156 -46.734375 L 47.414062 -46.222656 C 52.511719 -45.882812 62.539062 -45.375 67.296875 -45.375 C 69.847656 -45.375 72.394531 -45.375 74.945312 -46.734375 C 75.964844 -47.242188 76.984375 -48.09375 77.324219 -49.964844 C 77.492188 -50.984375 77.832031 -54.550781 77.832031 -55.910156 L 77.832031 -63.386719 C 77.832031 -66.277344 77.324219 -68.148438 76.472656 -68.996094 C 75.285156 -70.1875 72.054688 -70.695312 70.527344 -70.695312 C 68.996094 -70.695312 66.449219 -70.1875 63.386719 -70.355469 L 60.667969 -70.527344 C 58.96875 -70.695312 60.160156 -70.867188 57.949219 -70.867188 C 55.230469 -70.867188 53.871094 -70.695312 51.832031 -70.695312 L 45.203125 -70.527344 C 42.65625 -70.527344 38.917969 -70.695312 37.046875 -73.074219 C 36.027344 -74.433594 35.859375 -75.964844 35.859375 -76.984375 C 35.859375 -77.664062 35.859375 -78.34375 35.859375 -79.023438 C 35.859375 -79.703125 35.6875 -80.210938 35.6875 -80.894531 L 35.519531 -82.761719 C 35.347656 -84.121094 35.347656 -86.5 37.046875 -88.199219 C 38.40625 -89.558594 40.957031 -90.410156 44.183594 -90.238281 L 69.507812 -89.21875 C 72.90625 -89.050781 74.09375 -90.070312 74.433594 -90.410156 C 75.625 -91.597656 75.792969 -93.976562 75.964844 -95.507812 L 76.644531 -99.417969 C 76.8125 -100.605469 77.152344 -101.285156 77.324219 -103.324219 C 77.324219 -105.703125 77.492188 -105.363281 77.492188 -106.214844 C 77.492188 -108.761719 77.152344 -110.292969 76.304688 -111.480469 C 75.113281 -113.351562 73.925781 -113.183594 72.734375 -113.183594 L 66.617188 -112.84375 C 64.238281 -112.671875 61.007812 -113.183594 57.949219 -113.351562 C 56.929688 -113.351562 55.910156 -113.351562 54.890625 -113.351562 C 48.605469 -113.351562 42.144531 -112.84375 35.859375 -113.011719 Z M 18.523438 -113.691406 "/>
</g>
<g id="glyph-0-4">
<path d="M 35.347656 -108.59375 C 35.347656 -110.460938 34.667969 -111.652344 33.988281 -112.332031 C 32.800781 -113.351562 31.4375 -113.351562 30.25 -113.351562 L 13.253906 -113.523438 C 12.234375 -113.523438 10.195312 -113.011719 9.347656 -112.332031 C 8.496094 -111.652344 8.328125 -110.460938 8.328125 -109.78125 L 8.15625 -106.722656 C 7.648438 -98.226562 8.328125 -98.566406 8.328125 -85.992188 L 8.328125 -68.65625 L 8.496094 -61.519531 C 8.667969 -55.742188 7.988281 -52.003906 7.988281 -47.753906 C 7.988281 -43.164062 8.328125 -39.9375 8.328125 -37.046875 L 8.328125 -22.09375 C 8.328125 -19.375 8.667969 -17.503906 8.496094 -14.445312 C 8.328125 -11.386719 7.988281 -9.855469 7.988281 -7.476562 C 7.988281 -3.910156 8.328125 -2.71875 9.175781 -1.53125 C 10.027344 -0.511719 10.707031 -0.171875 13.59375 0 C 18.015625 0.171875 19.882812 -0.171875 22.09375 -0.171875 C 22.773438 -0.171875 23.621094 -0.171875 24.300781 -0.171875 C 25.832031 -0.171875 27.53125 0 29.058594 0 C 29.910156 0 31.949219 -0.171875 33.140625 -1.359375 C 34.328125 -2.378906 34.5 -3.910156 34.5 -5.097656 L 34.839844 -33.140625 C 34.839844 -35.6875 34.328125 -37.046875 36.199219 -40.957031 C 37.386719 -43.503906 40.785156 -45.882812 46.054688 -45.882812 L 55.230469 -45.882812 C 59.648438 -45.882812 67.296875 -45.714844 69.847656 -45.035156 C 72.226562 -44.355469 73.925781 -42.65625 74.433594 -41.125 C 74.773438 -39.9375 75.285156 -36.027344 75.285156 -31.4375 L 75.285156 -13.765625 C 75.285156 -9.347656 73.925781 -4.757812 76.984375 -1.53125 C 77.492188 -1.019531 79.023438 0.171875 82.59375 0.171875 L 90.75 0 C 93.808594 0 94.65625 0.171875 95.847656 0.171875 C 96.699219 0.171875 97.546875 0.171875 98.398438 0.171875 C 99.417969 0.171875 100.265625 0.339844 101.285156 -1.019531 C 101.625 -1.359375 102.644531 -2.890625 102.476562 -6.289062 L 101.625 -25.660156 C 101.457031 -28.890625 101.796875 -31.949219 101.964844 -35.179688 C 102.136719 -38.238281 101.964844 -41.125 101.964844 -44.183594 L 102.136719 -59.480469 C 102.136719 -59.988281 102.136719 -60.667969 102.136719 -61.179688 C 102.136719 -64.917969 102.304688 -68.488281 102.304688 -72.226562 C 102.304688 -75.625 102.136719 -79.023438 102.136719 -82.421875 C 102.136719 -84.972656 102.476562 -87.519531 102.476562 -90.070312 L 102.476562 -91.597656 C 102.476562 -97.207031 101.964844 -97.71875 102.136719 -100.265625 L 102.476562 -104.34375 L 102.644531 -108.082031 C 102.644531 -109.78125 102.644531 -110.800781 101.625 -112.160156 C 101.285156 -112.671875 100.265625 -113.691406 98.226562 -113.691406 C 97.039062 -113.691406 96.015625 -113.523438 94.828125 -113.351562 C 93.46875 -113.183594 91.9375 -113.011719 90.578125 -113.011719 L 80.042969 -113.351562 C 78.34375 -113.351562 77.492188 -113.011719 76.644531 -112.332031 C 74.605469 -110.460938 75.285156 -107.914062 75.285156 -104.175781 L 75.792969 -81.742188 C 75.792969 -78.683594 74.433594 -77.492188 73.414062 -76.132812 C 72.90625 -75.285156 72.566406 -74.605469 70.695312 -73.753906 C 67.636719 -72.566406 66.789062 -72.226562 66.109375 -72.226562 L 64.917969 -72.226562 C 55.230469 -72.226562 60.5 -72.90625 51.492188 -72.734375 L 43.84375 -72.566406 C 40.957031 -72.566406 38.746094 -73.585938 37.558594 -74.773438 C 35.859375 -76.472656 35.6875 -78.851562 35.519531 -81.402344 L 35.179688 -86.160156 C 34.839844 -90.410156 34.667969 -91.089844 34.667969 -92.617188 C 34.667969 -92.957031 34.667969 -93.128906 34.667969 -93.46875 C 34.667969 -94.316406 34.839844 -95.335938 34.839844 -96.1875 C 34.839844 -97.039062 35.007812 -98.058594 35.007812 -98.90625 Z M 35.347656 -108.59375 "/>
</g>
  </defs>
  <g transform="translate(375 272) scale(0.68)">
    <circle cx="360" cy="580" r="250" fill="url(#bubblehubPink)"/>
    <circle cx="655" cy="220" r="126" fill="url(#bubblehubPink)"/>
    <circle cx="835" cy="490" r="74" fill="url(#bubblehubPink)"/>
    <ellipse cx="232" cy="438" rx="92" ry="34" fill="#FFFFFF" opacity="0.92" transform="rotate(-39 232 438)"/>
    <ellipse cx="594" cy="146" rx="43" ry="15" fill="#FFFFFF" opacity="0.92" transform="rotate(-37 594 146)"/>
    <ellipse cx="796" cy="440" rx="29" ry="10" fill="#FFFFFF" opacity="0.92" transform="rotate(-37 796 440)"/>
  </g>
  <g fill="#FFFFFF">
    <use href="#glyph-0-0" x="333.227935" y="992.369847"/>
    <use href="#glyph-0-1" x="425.161590" y="992.369847"/>
    <use href="#glyph-0-0" x="526.441588" y="992.369847"/>
    <use href="#glyph-0-0" x="618.375265" y="992.369847"/>
    <use href="#glyph-0-2" x="710.308897" y="992.369847"/>
    <use href="#glyph-0-3" x="781.850532" y="992.369847"/>
    <use href="#glyph-0-4" x="863.078354" y="992.369847"/>
    <use href="#glyph-0-1" x="967.587073" y="992.369847"/>
    <use href="#glyph-0-0" x="1068.867094" y="992.369847"/>
  </g>
</svg>
